<svg xmlns="http://www.w3.org/2000/svg" width="1200" height="675" viewBox="0 0 1200 675" role="img" aria-labelledby="t d">
<title id="t">AI governance pilot</title><desc id="d">Abstract editorial illustration of an AI workflow with human review, controls and measured output.</desc>
<defs><linearGradient id="bg" x1="0" y1="0" x2="1" y2="1"><stop stop-color="#101e35"/><stop offset="1" stop-color="#193f39"/></linearGradient><radialGradient id="glow"><stop stop-color="#4169d8" stop-opacity=".55"/><stop offset="1" stop-color="#4169d8" stop-opacity="0"/></radialGradient></defs>
<rect width="1200" height="675" fill="url(#bg)"/><circle cx="745" cy="335" r="330" fill="url(#glow)"/><g opacity=".18" stroke="#d9ebe1"><path d="M0 135H1200M0 270H1200M0 405H1200M0 540H1200"/><path d="M200 0V675M400 0V675M600 0V675M800 0V675M1000 0V675"/></g>
<g stroke="#8fa7ed" stroke-width="4" fill="none"><path d="M220 338H405"/><path d="M495 338H670"/><path d="M760 338H940"/></g>
<g fill="#edf3ff"><rect x="150" y="268" width="140" height="140" rx="36"/><rect x="390" y="268" width="120" height="140" rx="36"/><rect x="650" y="268" width="130" height="140" rx="36"/><rect x="920" y="268" width="140" height="140" rx="36"/></g>
<g fill="#4169d8"><circle cx="220" cy="338" r="25"/><path d="M425 330h50v16h-50z"/><circle cx="715" cy="320" r="22"/><circle cx="715" cy="360" r="22"/></g>
<path d="M958 337l26 26 45-58" fill="none" stroke="#173f38" stroke-width="13" stroke-linecap="round" stroke-linejoin="round"/>
<circle cx="585" cy="338" r="52" fill="#c7f179"/><circle cx="585" cy="338" r="20" fill="#173f38"/><path d="M585 265V218M585 458v-47M512 338h-48M706 338h-48" stroke="#c7f179" stroke-width="6" stroke-linecap="round"/>
<g font-family="Arial,sans-serif" fill="#edf5f2"><text x="72" y="80" font-size="16" font-weight="700" letter-spacing="3">DIGITAL LAW GEORGIA</text><text x="72" y="610" font-size="15" letter-spacing="2" opacity=".75">AI GOVERNANCE · HUMAN REVIEW · CONTROL</text></g></svg>